<?xml version="1.0" standalone="no"?>
<!DOCTYPE svg PUBLIC "-//W3C//DTD SVG 20010904//EN"
 "http://www.w3.org/TR/2001/REC-SVG-20010904/DTD/svg10.dtd">
<svg version="1.0" xmlns="http://www.w3.org/2000/svg"
 width="96.000000pt" height="96.000000pt" viewBox="0 0 96.000000 96.000000"
 preserveAspectRatio="xMidYMid meet">

<g transform="translate(0.000000,96.000000) scale(0.100000,-0.100000)"
fill="#000000" stroke="none">
<path d="M367 894 c-4 -4 -7 -22 -7 -40 0 -28 -4 -34 -36 -44 -32 -11 -38 -10
-58 9 -12 12 -25 21 -29 21 -11 0 -97 -81 -109 -103 -8 -15 -5 -24 12 -42 20
-21 21 -27 10 -59 -10 -30 -16 -35 -48 -38 l-37 -3 0 -85 0 -85 37 -3 c32 -3
38 -8 48 -38 11 -32 10 -38 -10 -59 -17 -18 -20 -27 -12 -42 12 -22 98 -103
109 -103 4 0 17 9 29 21 20 19 26 20 58 9 30 -10 35 -16 38 -48 l3 -37 85 0
85 0 3 37 c3 32 8 38 38 48 32 11 38 10 58 -9 12 -12 25 -21 29 -21 11 0 97
81 109 103 8 15 5 24 -12 42 -20 21 -21 27 -10 59 10 30 16 35 48 38 l37 3 0
85 0 85 -37 3 c-32 3 -38 8 -48 38 -11 32 -10 38 10 59 17 18 20 27 12 42 -12
22 -98 103 -109 103 -4 0 -17 -9 -29 -21 -20 -19 -26 -20 -58 -9 -30 10 -35
16 -38 48 l-3 37 -80 3 c-45 1 -84 0 -88 -4z m115 -80 c3 -29 4 -29 85 -65 51
-22 53 -22 73 -4 20 18 21 18 42 -3 21 -21 21 -22 3 -42 -18 -20 -18 -22 4
-73 36 -81 36 -82 65 -85 21 -3 26 -8 26 -32 0 -24 -5 -29 -26 -32 -29 -3 -29
-4 -65 -85 -22 -51 -22 -53 -4 -73 18 -20 18 -21 -3 -42 -21 -21 -22 -21 -42
-3 -20 18 -22 18 -73 -4 -81 -36 -82 -36 -85 -65 -3 -21 -8 -26 -32 -26 -24 0
-29 5 -32 26 -3 29 -4 29 -85 65 -51 22 -53 22 -73 4 -20 -18 -21 -18 -42 3
-21 21 -21 22 -3 42 18 20 18 22 -4 73 -36 81 -36 82 -65 85 -21 3 -26 8 -26
32 0 24 5 29 26 32 29 3 29 4 65 85 22 51 22 53 4 73 -18 20 -18 21 3 42 21
21 22 21 42 3 20 -18 22 -18 73 4 81 36 82 36 85 65 3 21 8 26 32 26 24 0 29
-5 32 -26z"/>
<path d="M376 636 c-71 -43 -94 -122 -57 -194 22 -43 84 -82 130 -82 75 0 151
75 151 149 0 51 -35 108 -80 131 -52 26 -96 25 -144 -4z m135 -65 c20 -20 29
-39 29 -61 0 -43 -47 -90 -90 -90 -43 0 -90 47 -90 90 0 22 9 41 29 61 20 20
39 29 61 29 22 0 41 -9 61 -29z"/>
</g>
</svg>
